# xmcd
#
# Track frame offsets:
#	150
#	17028
#	33506
#	50391
#	67104
#	83796
#	102472
#	116429
#	134695
#	149377
#	165221
#
# Disc length: 2412 seconds
#
# Revision: 1
# Processed by: cddbd v1.5.2PL0 Copyright (c) Steve Scherf et al.
# Submitted via: audiograbber 1.83.01
#
DISCID=95096a0b
DTITLE=Lisa O'Kane - It Don't Hurt
DYEAR=2007
DGENRE=Country
TTITLE0=Ain't Done Nothing
TTITLE1=Speed Of The Sound Of Loneliness
TTITLE2=Give Me This Night
TTITLE3=Misery And Happiness
TTITLE4=I'm Done
TTITLE5=It Don't Hurt
TTITLE6=Got The Car Running
TTITLE7=Uninvited Guests
TTITLE8=Pay For My Sins
TTITLE9=Paper Thin
TTITLE10=Remember This
EXTD=
EXTT0=
EXTT1=
EXTT2=
EXTT3=
EXTT4=
EXTT5=
EXTT6=
EXTT7=
EXTT8=
EXTT9=
EXTT10=
PLAYORDER=
